<?xml version="1.0" encoding="iso-8859-1"?>
<!-- Generator: Adobe Illustrator 16.0.0, SVG Export Plug-In . SVG Version: 6.00 Build 0)  -->
<!DOCTYPE svg PUBLIC "-//W3C//DTD SVG 1.1//EN" "http://www.w3.org/Graphics/SVG/1.1/DTD/svg11.dtd">
<svg version="1.1" id="Capa_1" xmlns="http://www.w3.org/2000/svg" xmlns:xlink="http://www.w3.org/1999/xlink" x="0px" y="0px"
	 width="409.491px" height="409.491px" viewBox="0 0 409.491 409.491" style="enable-background:new 0 0 409.491 409.491;"
	 xml:space="preserve">
<g>
	<path d="M405.264,194.553L214.936,4.225c-5.633-5.632-14.757-5.632-20.39,0L4.224,194.553C1.519,197.258,0,200.927,0,204.746
		s1.519,7.487,4.224,10.196l190.322,190.321c2.816,2.822,6.498,4.228,10.193,4.228c3.684,0,7.38-1.405,10.196-4.228l190.328-190.321
		c2.702-2.709,4.228-6.377,4.228-10.196S407.966,197.258,405.264,194.553z M271.789,189.437l-37.254,37.245
		c-2.811,2.822-6.497,4.228-10.196,4.228c-3.681,0-7.374-1.405-10.19-4.228c-5.632-5.633-5.632-14.754,0-20.387l12.749-12.739
		h-64.609v76.9c0,7.963-6.452,14.424-14.42,14.424c-7.962,0-14.417-6.461-14.417-14.424v-91.321c0-7.957,6.455-14.417,14.417-14.417
		h78.819l-15.51-15.501c-5.63-5.633-5.63-14.76,0-20.393c5.632-5.633,14.76-5.633,20.392,0l40.215,40.22
		C277.421,174.677,277.421,183.804,271.789,189.437z"/>
</g>
<g>
</g>
<g>
</g>
<g>
</g>
<g>
</g>
<g>
</g>
<g>
</g>
<g>
</g>
<g>
</g>
<g>
</g>
<g>
</g>
<g>
</g>
<g>
</g>
<g>
</g>
<g>
</g>
<g>
</g>
</svg>
